<svg width="12" height="14" viewBox="0 0 12 14" fill="none" xmlns="http://www.w3.org/2000/svg">
<path d="M6.66667 7.66667V4C6.66667 2.52724 5.47273 1.33333 4 1.33333C2.52724 1.33333 1.33333 2.52724 1.33333 4V7.66667C1.33333 10.0599 3.27343 12 5.66667 12C8.05993 12 10 10.0599 10 7.66667V1.33333H11.3333V7.66667C11.3333 10.7963 8.79627 13.3333 5.66667 13.3333C2.53705 13.3333 0 10.7963 0 7.66667V4C0 1.79086 1.79086 0 4 0C6.20913 0 8 1.79086 8 4V7.66667C8 8.95533 6.95533 10 5.66667 10C4.378 10 3.33333 8.95533 3.33333 7.66667V4H4.66667V7.66667C4.66667 8.21893 5.1144 8.66667 5.66667 8.66667C6.21893 8.66667 6.66667 8.21893 6.66667 7.66667Z" fill="#62708D"/>
</svg>
