<svg width="483" height="101" viewBox="0 0 483 101" fill="none" xmlns="http://www.w3.org/2000/svg">
<path d="M139.961 75.4692C134.239 75.4692 129.519 73.5727 125.791 69.7689C122.062 65.9651 120.198 61.2777 120.198 55.7067C120.198 50.1358 122.062 45.4053 125.791 41.623C129.519 37.8408 134.239 35.9551 139.961 35.9551C143.398 35.9551 146.577 36.7632 149.486 38.3688C152.396 39.9744 154.669 42.1618 156.296 44.9096L149.831 48.6595C148.894 46.957 147.547 45.6316 145.812 44.6725C144.077 43.7135 142.116 43.2394 139.95 43.2394C136.254 43.2394 133.28 44.4031 131.017 46.7091C128.754 49.0259 127.623 52.0323 127.623 55.7175C127.623 59.4028 128.754 62.3553 131.017 64.672C133.28 66.9888 136.254 68.1418 139.95 68.1418C142.127 68.1418 144.088 67.6676 145.844 66.7086C147.601 65.7496 148.926 64.435 149.831 62.7755L156.296 66.5254C154.669 69.2732 152.406 71.4606 149.508 73.0662C146.609 74.6825 143.43 75.4799 139.95 75.4799L139.961 75.4692Z" fill="black"/>
<path d="M183.882 71.3201C181.091 74.0895 177.697 75.4687 173.678 75.4687C169.658 75.4687 166.264 74.0895 163.495 71.3201C160.725 68.5508 159.346 65.1565 159.346 61.1372C159.346 57.1179 160.725 53.7236 163.495 50.9543C166.264 48.1849 169.658 46.8057 173.678 46.8057C177.697 46.8057 181.091 48.1849 183.882 50.9543C186.673 53.7236 188.063 57.1179 188.063 61.1372C188.063 65.1565 186.673 68.5508 183.882 71.3201ZM168.441 66.5142C169.831 67.9258 171.576 68.6262 173.678 68.6262C175.779 68.6262 177.535 67.9258 178.947 66.5142C180.359 65.1026 181.059 63.3139 181.059 61.1372C181.059 58.9605 180.359 57.1718 178.947 55.7602C177.535 54.3486 175.779 53.6482 173.678 53.6482C171.576 53.6482 169.831 54.3594 168.441 55.7602C167.051 57.1718 166.35 58.9605 166.35 61.1372C166.35 63.3139 167.051 65.1026 168.441 66.5142Z" fill="black"/>
<path d="M200.002 52.2369C200.649 50.502 201.726 49.1982 203.235 48.3253C204.733 47.4525 206.414 47.0215 208.256 47.0215V54.8338C206.123 54.5859 204.215 55.017 202.534 56.1376C200.853 57.2583 200.013 59.1225 200.013 61.7302V74.704H193.009V47.5603H200.013V52.2261L200.002 52.2369Z" fill="black"/>
<path d="M217.211 64.0143C218.148 67.4194 220.702 69.1219 224.862 69.1219C227.534 69.1219 229.571 68.2168 230.939 66.4065L236.585 69.6607C233.902 73.5291 229.958 75.4687 224.754 75.4687C220.26 75.4687 216.661 74.111 213.957 71.3956C211.252 68.6801 209.884 65.2642 209.884 61.1372C209.884 57.0101 211.22 53.6374 213.903 50.9004C216.586 48.1634 220.023 46.8057 224.215 46.8057C228.191 46.8057 231.478 48.1849 234.064 50.9327C236.65 53.6805 237.943 57.0856 237.943 61.1372C237.943 62.0423 237.857 63.0014 237.674 64.0143H217.211ZM217.103 58.5834H230.95C230.551 56.7408 229.732 55.3615 228.482 54.4563C227.232 53.5512 225.81 53.0986 224.226 53.0986C222.34 53.0986 220.788 53.5835 219.56 54.5318C218.332 55.4908 217.513 56.8377 217.114 58.5726L217.103 58.5834Z" fill="black"/>
<path d="M255.044 75.4692C251.283 75.4692 248.115 74.6287 245.54 72.9477C242.964 71.2667 241.165 68.9715 240.109 66.0837L246.51 62.3337C247.997 66.2022 250.906 68.1418 255.249 68.1418C257.35 68.1418 258.891 67.7646 259.861 66.9996C260.841 66.2345 261.326 65.2863 261.326 64.1225C261.326 62.7863 260.733 61.7411 259.537 60.9976C258.341 60.2541 256.208 59.4459 253.137 58.5838C251.434 58.0774 250.001 57.5709 248.826 57.0645C247.652 56.558 246.477 55.8792 245.303 55.0279C244.128 54.1766 243.234 53.0991 242.62 51.7952C242.005 50.4914 241.693 48.972 241.693 47.2372C241.693 43.7997 242.911 41.0627 245.357 39.0154C247.803 36.968 250.734 35.9443 254.182 35.9443C257.253 35.9443 259.968 36.6986 262.296 38.1964C264.634 39.6942 266.444 41.7847 267.748 44.4678L261.455 48.11C259.936 44.8557 257.511 43.2286 254.182 43.2286C252.63 43.2286 251.402 43.5842 250.518 44.2846C249.635 44.9958 249.193 45.901 249.193 47.0216C249.193 48.2177 249.688 49.1875 250.691 49.9203C251.682 50.6638 253.6 51.472 256.412 52.334C257.576 52.7004 258.449 52.9805 259.042 53.1745C259.634 53.3792 260.453 53.681 261.488 54.1012C262.522 54.5214 263.319 54.9094 263.88 55.265C264.44 55.6313 265.087 56.1162 265.809 56.7304C266.531 57.3447 267.08 57.9804 267.468 58.6269C267.856 59.2735 268.179 60.0601 268.449 60.9868C268.718 61.9135 268.858 62.9156 268.858 64.004C268.858 67.5168 267.587 70.2969 265.033 72.3658C262.479 74.424 259.16 75.4584 255.076 75.4584L255.044 75.4692Z" fill="black"/>
<path d="M290 47.5713H297.489L287.597 74.7581C286.185 78.6373 284.31 81.4497 281.983 83.2062C279.655 84.9626 276.746 85.7492 273.276 85.566V79.0576C275.162 79.0899 276.649 78.6912 277.759 77.8615C278.858 77.0317 279.741 75.6848 280.388 73.8422L269.257 47.5713H276.908L283.987 65.8144L289.989 47.5713H290Z" fill="black"/>
<path d="M315.894 46.8057C318.857 46.8057 321.314 47.797 323.253 49.7905C325.193 51.784 326.163 54.5318 326.163 58.0446V74.7144H319.159V58.9174C319.159 57.1071 318.674 55.7279 317.693 54.7688C316.713 53.8098 315.409 53.3357 313.782 53.3357C311.971 53.3357 310.527 53.896 309.439 55.0167C308.351 56.1373 307.812 57.8183 307.812 60.0704V74.7252H300.808V47.5815H307.812V50.6202C309.515 48.088 312.208 46.8164 315.904 46.8164L315.894 46.8057Z" fill="black"/>
<path d="M352.757 47.5707H359.761V74.7144H352.757V71.5141C350.656 74.1541 347.714 75.4795 343.91 75.4795C340.107 75.4795 337.187 74.1002 334.6 71.3309C332.014 68.5615 330.721 65.1672 330.721 61.1479C330.721 57.1286 332.014 53.7343 334.6 50.965C337.187 48.1957 340.29 46.8164 343.91 46.8164C347.714 46.8164 350.656 48.1418 352.757 50.7818V47.5815V47.5707ZM339.837 66.6543C341.249 68.0874 343.038 68.7986 345.214 68.7986C347.391 68.7986 349.191 68.0874 350.613 66.6543C352.035 65.2211 352.757 63.3893 352.757 61.1479C352.757 58.9066 352.046 57.064 350.613 55.6416C349.18 54.2085 347.38 53.4973 345.214 53.4973C343.048 53.4973 341.249 54.2085 339.837 55.6416C338.426 57.0748 337.725 58.9066 337.725 61.1479C337.725 63.3893 338.437 65.2319 339.837 66.6543Z" fill="black"/>
<path d="M381.905 46.8057C385.558 46.8057 388.683 48.1849 391.269 50.9543C393.855 53.7236 395.148 57.1179 395.148 61.1372C395.148 65.1565 393.855 68.5508 391.269 71.3201C388.683 74.0895 385.558 75.4687 381.905 75.4687C378.252 75.4687 375.17 74.1433 373.112 71.5033V85.5655H366.108V47.5707H373.112V50.7711C375.17 48.1311 378.101 46.8057 381.905 46.8057ZM375.224 66.6435C376.636 68.0767 378.425 68.7879 380.601 68.7879C382.778 68.7879 384.577 68.0767 386 66.6435C387.422 65.2104 388.144 63.3785 388.144 61.1372C388.144 58.8959 387.433 57.0533 386 55.6309C384.567 54.1977 382.767 53.4865 380.601 53.4865C378.435 53.4865 376.636 54.1977 375.224 55.6309C373.813 57.064 373.112 58.8959 373.112 61.1372C373.112 63.3785 373.823 65.2211 375.224 66.6435Z" fill="black"/>
<path d="M415.018 54.2945H408.887V65.5873C408.887 66.5247 409.124 67.2144 409.598 67.6454C410.072 68.0764 410.751 68.3243 411.656 68.3781C412.561 68.432 413.682 68.4212 415.018 68.3458V74.6926C410.202 75.2314 406.807 74.7788 404.835 73.3349C402.863 71.891 401.872 69.3048 401.872 65.5765V54.2837H397.152V47.5489H401.872V42.0642L408.876 39.9521V47.5489H415.007V54.2837L415.018 54.2945Z" fill="black"/>
<path d="M423.434 44.306C422.27 44.306 421.268 43.8858 420.417 43.0345C419.566 42.1833 419.146 41.1811 419.146 40.0174C419.146 38.8536 419.566 37.8515 420.417 36.9786C421.268 36.1058 422.27 35.6748 423.434 35.6748C424.598 35.6748 425.654 36.1058 426.505 36.9786C427.356 37.8515 427.777 38.8644 427.777 40.0174C427.777 41.1704 427.346 42.1833 426.505 43.0345C425.654 43.8858 424.63 44.306 423.434 44.306ZM419.964 74.704V47.5603H426.969V74.704H419.964Z" fill="black"/>
<path d="M446.289 75.4687C442.194 75.4687 438.789 74.0894 436.052 71.3417C433.315 68.5939 431.958 65.1888 431.958 61.1372C431.958 57.0856 433.326 53.6805 436.052 50.9327C438.789 48.1849 442.194 46.8057 446.289 46.8057C448.929 46.8057 451.332 47.4414 453.509 48.7022C455.675 49.9737 457.323 51.6655 458.444 53.8098L452.42 57.3334C451.882 56.2128 451.052 55.3292 449.953 54.6718C448.854 54.0145 447.615 53.6913 446.235 53.6913C444.134 53.6913 442.399 54.3917 441.02 55.7817C439.641 57.1718 438.962 58.9605 438.962 61.1264C438.962 63.2923 439.651 65.0272 441.02 66.4172C442.399 67.8073 444.134 68.5077 446.235 68.5077C447.647 68.5077 448.908 68.1952 450.007 67.5594C451.106 66.9237 451.936 66.0509 452.474 64.9302L458.552 68.3999C457.356 70.5335 455.675 72.2468 453.509 73.5291C451.332 74.8114 448.929 75.4579 446.289 75.4579V75.4687Z" fill="black"/>
<path d="M468.649 55.2753C468.649 55.9972 469.133 56.5899 470.082 57.0425C471.03 57.495 472.205 57.8937 473.584 58.2386C474.963 58.5834 476.332 59.0144 477.711 59.5424C479.09 60.0704 480.254 60.9432 481.213 62.1717C482.172 63.4001 482.646 64.941 482.646 66.7836C482.646 69.5745 481.601 71.7188 479.521 73.2166C477.441 74.7144 474.845 75.4687 471.73 75.4687C466.159 75.4687 462.356 73.3136 460.33 69.0142L466.407 65.5983C467.205 67.9474 468.972 69.1219 471.73 69.1219C474.23 69.1219 475.48 68.3461 475.48 66.7836C475.48 66.0616 474.995 65.469 474.047 65.0164C473.088 64.5638 471.924 64.1544 470.545 63.7988C469.166 63.4324 467.797 62.9798 466.418 62.441C465.039 61.9023 463.875 61.0402 462.916 59.8657C461.957 58.6911 461.483 57.2149 461.483 55.4369C461.483 52.7646 462.474 50.6526 464.446 49.1116C466.418 47.5707 468.875 46.8057 471.806 46.8057C474.015 46.8057 476.019 47.3013 477.829 48.3035C479.64 49.2948 481.073 50.7172 482.118 52.5598L476.148 55.8141C475.276 53.9714 473.832 53.0447 471.806 53.0447C470.901 53.0447 470.146 53.2387 469.554 53.6374C468.961 54.0361 468.659 54.5749 468.659 55.2645L468.649 55.2753Z" fill="black"/>
<path d="M23.2503 45.7277C25.2546 45.7277 26.9894 44.4238 27.6467 42.5381C30.8363 33.2711 39.6184 26.601 49.9737 26.601C55.771 26.601 61.0834 28.6915 65.1996 32.1612C66.8699 33.5728 69.262 33.7237 71.0292 32.4306H71.0508C73.4106 30.6742 73.6154 27.1614 71.3848 25.2433C65.6307 20.3081 58.1524 17.3232 49.9845 17.3232C35.556 17.3232 23.3042 26.6226 18.8754 39.5425C17.8409 42.5704 20.0499 45.7169 23.2395 45.7169H23.2611L23.2503 45.7277Z" fill="#00E691"/>
<path d="M49.9628 73.8093C39.5967 73.8093 30.8038 67.1392 27.625 57.8506C26.9785 55.9757 25.2544 54.6826 23.2717 54.6826H23.1639C19.9959 54.6826 17.8193 57.8075 18.8322 60.8032C23.2394 73.7554 35.5128 83.0763 49.9521 83.0763C57.8398 83.0763 65.081 80.307 70.7382 75.6735C73.0441 73.7985 72.9041 70.221 70.5119 68.4646L70.4257 68.3999C68.7124 67.1392 66.3956 67.2577 64.7362 68.5939C60.6845 71.8481 55.5446 73.8093 49.9413 73.8093H49.9628Z" fill="url(#paint0_linear_75_708)"/>
<path d="M64.8546 87.8066C59.4237 89.9294 53.411 90.8992 47.118 90.4359C27.3125 88.9596 11.3215 72.8824 9.95301 53.0661C8.33667 29.4892 26.9784 9.85603 50.2106 9.85603C61.331 9.85603 71.3954 14.3495 78.6905 21.623C80.4146 23.3363 83.13 23.5303 85.0804 22.0863C87.4834 20.3084 87.8066 16.7955 85.6946 14.6835C76.0612 5.07167 62.5594 -0.660941 47.7214 0.0610237C21.9139 1.30022 1.05238 22.3773 0.0394715 48.1848C-1.08119 76.8371 21.8062 100.414 50.2106 100.414C56.6544 100.414 62.818 99.1964 68.4752 96.9874C71.8911 95.6512 72.7747 91.244 70.0916 88.7549C68.68 87.451 66.6542 87.117 64.8654 87.8174L64.8546 87.8066Z" fill="url(#paint1_linear_75_708)"/>
<path d="M76.6756 87.6772L77.0635 88.0328C79.2186 90.0262 82.5591 90.0155 84.6711 87.9897C84.7034 87.9573 84.725 87.9358 84.7573 87.9035C87.365 85.4035 87.0956 81.1579 84.197 79.0136C81.9018 77.3218 78.7445 77.5589 76.6864 79.5308C76.6541 79.5631 76.611 79.5955 76.5786 79.6386C74.2834 81.8368 74.3481 85.5221 76.6756 87.6772Z" fill="#00E691"/>
<defs>
<linearGradient id="paint0_linear_75_708" x1="18.5843" y1="68.8848" x2="72.4084" y2="68.8848" gradientUnits="userSpaceOnUse">
<stop stop-color="#0075F8"/>
<stop offset="1" stop-color="#62D1FE"/>
</linearGradient>
<linearGradient id="paint1_linear_75_708" x1="15.9658" y1="26.6228" x2="87.3325" y2="75.7811" gradientUnits="userSpaceOnUse">
<stop stop-color="#0075F8"/>
<stop offset="1" stop-color="#62D1FE"/>
</linearGradient>
</defs>
</svg>
