<svg width="32" height="32" viewBox="0 0 32 32" fill="none" xmlns="http://www.w3.org/2000/svg">
<path d="M28.3309 16.0003C28.333 17.6196 28.0155 19.2234 27.3966 20.7197C26.7777 22.2161 25.8696 23.5756 24.7243 24.7203C23.5784 25.8664 22.2179 26.7755 20.7205 27.3955C19.2231 28.0155 17.6183 28.3343 15.9976 28.3337C14.2533 28.3375 12.5283 27.9693 10.9376 27.2537L5.78159 28.0163C5.52559 28.0581 5.26326 28.0368 5.01737 27.9542C4.77149 27.8716 4.54949 27.7302 4.37067 27.5423C4.19184 27.3544 4.06159 27.1257 3.99123 26.876C3.92087 26.6263 3.91252 26.3633 3.96692 26.1097L4.68292 20.879C4.00185 19.3432 3.65464 17.6803 3.66426 16.0003C3.66219 14.381 3.9797 12.7773 4.59861 11.2809C5.21751 9.78456 6.12563 8.42506 7.27092 7.28033C8.41678 6.13422 9.77728 5.22518 11.2747 4.60518C12.772 3.98518 14.3769 3.66638 15.9976 3.66699C19.2704 3.66721 22.4092 4.96687 24.7243 7.28033C25.869 8.42549 26.7767 9.78508 27.3956 11.2813C28.0144 12.7776 28.3323 14.3811 28.3309 16.0003Z" stroke="#FB5874" stroke-width="2.5" stroke-linecap="round" stroke-linejoin="round"/>
<path d="M15.9985 16.8135C16.2144 16.8135 16.4214 16.7278 16.5741 16.5751C16.7267 16.4225 16.8125 16.2154 16.8125 15.9995C16.8125 15.7837 16.7267 15.5766 16.5741 15.424C16.4214 15.2713 16.2144 15.1855 15.9985 15.1855C15.7826 15.1855 15.5755 15.2713 15.4229 15.424C15.2702 15.5766 15.1845 15.7837 15.1845 15.9995C15.1845 16.2154 15.2702 16.4225 15.4229 16.5751C15.5755 16.7278 15.7826 16.8135 15.9985 16.8135ZM21.7038 16.8135C21.9197 16.8135 22.1267 16.7278 22.2794 16.5751C22.432 16.4225 22.5178 16.2154 22.5178 15.9995C22.5178 15.7837 22.432 15.5766 22.2794 15.424C22.1267 15.2713 21.9197 15.1855 21.7038 15.1855C21.4879 15.1855 21.2809 15.2713 21.1282 15.424C20.9756 15.5766 20.8898 15.7837 20.8898 15.9995C20.8898 16.2154 20.9756 16.4225 21.1282 16.5751C21.2809 16.7278 21.4879 16.8135 21.7038 16.8135ZM10.2931 16.8135C10.4 16.8136 10.5059 16.7927 10.6047 16.7518C10.7035 16.711 10.7933 16.6511 10.8689 16.5756C10.9446 16.5001 11.0046 16.4104 11.0456 16.3117C11.0866 16.2129 11.1077 16.1071 11.1078 16.0002C11.1079 15.8933 11.0869 15.7875 11.0461 15.6887C11.0053 15.5899 10.9454 15.5001 10.8699 15.4244C10.7943 15.3488 10.7046 15.2888 10.6059 15.2478C10.5072 15.2068 10.4014 15.1856 10.2945 15.1855C10.0786 15.1855 9.87154 15.2713 9.71888 15.424C9.56623 15.5766 9.48047 15.7837 9.48047 15.9995C9.48047 16.2154 9.56623 16.4225 9.71888 16.5751C9.87154 16.7278 10.0772 16.8135 10.2931 16.8135Z" stroke="#FB5874" stroke-width="1.5" stroke-linecap="round" stroke-linejoin="round"/>
</svg>
