<svg width="32" height="32" viewBox="0 0 32 32" fill="none" xmlns="http://www.w3.org/2000/svg">
<path d="M24.4866 14.1144C24.92 13.681 25.2637 13.1665 25.4983 12.6003C25.7328 12.0341 25.8535 11.4272 25.8535 10.8144C25.8535 10.2015 25.7328 9.59463 25.4983 9.02842C25.2637 8.4622 24.92 7.94773 24.4866 7.51437C24.0532 7.081 23.5388 6.73724 22.9726 6.50271C22.4063 6.26817 21.7995 6.14746 21.1866 6.14746C20.5737 6.14746 19.9669 6.26817 19.4007 6.50271C18.8344 6.73724 18.32 7.081 17.8866 7.51437L7.51595 17.885C6.64073 18.7602 6.14904 19.9473 6.14904 21.185C6.14904 22.4228 6.64073 23.6098 7.51595 24.485C7.94931 24.9184 8.46378 25.2622 9.03 25.4967C9.59621 25.7312 10.2031 25.8519 10.8159 25.8519C12.0537 25.8519 13.2407 25.3602 14.1159 24.485L19.5373 19.0637C19.6921 18.9089 19.8148 18.7252 19.8986 18.5229C19.9824 18.3207 20.0255 18.1039 20.0255 17.885C20.0255 17.6661 19.9824 17.4494 19.8986 17.2471C19.8148 17.0449 19.6921 16.8611 19.5373 16.7064C19.3825 16.5516 19.1987 16.4288 18.9965 16.345C18.7943 16.2613 18.5775 16.2181 18.3586 16.2181C18.1397 16.2181 17.923 16.2613 17.7207 16.345C17.5185 16.4288 17.3347 16.5516 17.1799 16.7064L12.2306 21.657C11.9804 21.9072 11.6411 22.0478 11.2873 22.0478C10.9335 22.0478 10.5941 21.9072 10.3439 21.657C10.0938 21.4068 9.9532 21.0675 9.9532 20.7137C9.9532 20.3599 10.0938 20.0206 10.3439 19.7704L15.2946 14.821C16.1098 14.0207 17.208 13.5747 18.3504 13.5799C19.4927 13.5852 20.5868 14.0413 21.3946 14.8491C22.2024 15.6568 22.6585 16.7509 22.6637 17.8933C22.669 19.0356 22.2229 20.1339 21.4226 20.949L16.0013 26.3704C15.322 27.0588 14.5132 27.6061 13.6216 27.9807C12.7299 28.3553 11.7729 28.5498 10.8058 28.5531C9.83861 28.5563 8.88037 28.3682 7.98621 27.9996C7.09205 27.631 6.27964 27.0891 5.59575 26.4052C4.91186 25.7213 4.37001 24.9089 4.00139 24.0148C3.63277 23.1206 3.44467 22.1624 3.44791 21.1952C3.45115 20.2281 3.64567 19.2711 4.02027 18.3794C4.39487 17.4877 4.94216 16.679 5.63061 15.9997L16.0013 5.62903C16.6806 4.94058 17.4893 4.3933 18.381 4.01869C19.2727 3.64409 20.2296 3.44957 21.1968 3.44633C22.1639 3.44309 23.1222 3.6312 24.0163 3.99981C24.9105 4.36843 25.7229 4.91029 26.4068 5.59417C27.0907 6.27806 27.6325 7.09047 28.0012 7.98463C28.3698 8.87879 28.5579 9.83703 28.5546 10.8042C28.5514 11.7713 28.3569 12.7283 27.9823 13.62C27.6077 14.5116 27.0604 15.3204 26.3719 15.9997L25.9013 16.4704C25.7784 16.5978 25.6313 16.6995 25.4687 16.7695C25.3061 16.8395 25.1311 16.8764 24.9541 16.878C24.7771 16.8797 24.6015 16.8461 24.4376 16.7791C24.2737 16.7122 24.1247 16.6133 23.9994 16.4882C23.8742 16.3631 23.7751 16.2143 23.7079 16.0505C23.6407 15.8867 23.6069 15.7112 23.6083 15.5341C23.6097 15.3571 23.6464 15.1821 23.7161 15.0194C23.7859 14.8566 23.8874 14.7095 24.0146 14.5864L24.4866 14.1144Z" fill="#0075FF"/>
</svg>
