<svg width="16" height="26" viewBox="0 0 16 26" fill="none" xmlns="http://www.w3.org/2000/svg">
<path d="M1 2.5C1 2.89782 1.16389 3.27936 1.45561 3.56066C1.74734 3.84196 2.143 4 2.55556 4C2.96811 4 3.36378 3.84196 3.6555 3.56066C3.94722 3.27936 4.11111 2.89782 4.11111 2.5C4.11111 2.10218 3.94722 1.72064 3.6555 1.43934C3.36378 1.15804 2.96811 1 2.55556 1C2.143 1 1.74734 1.15804 1.45561 1.43934C1.16389 1.72064 1 2.10218 1 2.5Z" stroke="#BEBEC8" strokeWidth="2" strokeLinecap="round" strokeLinejoin="round"/>
<path d="M11.8889 2.5C11.8889 2.89782 12.0528 3.27936 12.3445 3.56066C12.6362 3.84196 13.0319 4 13.4444 4C13.857 4 14.2527 3.84196 14.5444 3.56066C14.8361 3.27936 15 2.89782 15 2.5C15 2.10218 14.8361 1.72064 14.5444 1.43934C14.2527 1.15804 13.857 1 13.4444 1C13.0319 1 12.6362 1.15804 12.3445 1.43934C12.0528 1.72064 11.8889 2.10218 11.8889 2.5Z" stroke="#BEBEC8" strokeWidth="2" strokeLinecap="round" strokeLinejoin="round"/>
<path d="M1 13C1 13.3978 1.16389 13.7794 1.45561 14.0607C1.74734 14.342 2.143 14.5 2.55556 14.5C2.96811 14.5 3.36378 14.342 3.6555 14.0607C3.94722 13.7794 4.11111 13.3978 4.11111 13C4.11111 12.6022 3.94722 12.2206 3.6555 11.9393C3.36378 11.658 2.96811 11.5 2.55556 11.5C2.143 11.5 1.74734 11.658 1.45561 11.9393C1.16389 12.2206 1 12.6022 1 13Z" stroke="#BEBEC8" strokeWidth="2" strokeLinecap="round" strokeLinejoin="round"/>
<path d="M11.8889 13C11.8889 13.3978 12.0528 13.7794 12.3445 14.0607C12.6362 14.342 13.0319 14.5 13.4444 14.5C13.857 14.5 14.2527 14.342 14.5444 14.0607C14.8361 13.7794 15 13.3978 15 13C15 12.6022 14.8361 12.2206 14.5444 11.9393C14.2527 11.658 13.857 11.5 13.4444 11.5C13.0319 11.5 12.6362 11.658 12.3445 11.9393C12.0528 12.2206 11.8889 12.6022 11.8889 13Z" stroke="#BEBEC8" strokeWidth="2" strokeLinecap="round" strokeLinejoin="round"/>
<path d="M1 23.5C1 23.8978 1.16389 24.2794 1.45561 24.5607C1.74734 24.842 2.143 25 2.55556 25C2.96811 25 3.36378 24.842 3.6555 24.5607C3.94722 24.2794 4.11111 23.8978 4.11111 23.5C4.11111 23.1022 3.94722 22.7206 3.6555 22.4393C3.36378 22.158 2.96811 22 2.55556 22C2.143 22 1.74734 22.158 1.45561 22.4393C1.16389 22.7206 1 23.1022 1 23.5Z" stroke="#BEBEC8" strokeWidth="2" strokeLinecap="round" strokeLinejoin="round"/>
<path d="M11.8889 23.5C11.8889 23.8978 12.0528 24.2794 12.3445 24.5607C12.6362 24.842 13.0319 25 13.4444 25C13.857 25 14.2527 24.842 14.5444 24.5607C14.8361 24.2794 15 23.8978 15 23.5C15 23.1022 14.8361 22.7206 14.5444 22.4393C14.2527 22.158 13.857 22 13.4444 22C13.0319 22 12.6362 22.158 12.3445 22.4393C12.0528 22.7206 11.8889 23.1022 11.8889 23.5Z" stroke="#BEBEC8" strokeWidth="2" strokeLinecap="round" strokeLinejoin="round"/>
</svg>
